<mxfile host="Electron" modified="2023-11-07T14:22:46.658Z" agent="Mozilla/5.0 (X11; Linux x86_64) AppleWebKit/537.36 (KHTML, like Gecko) draw.io/22.0.3 Chrome/114.0.5735.289 Electron/25.8.4 Safari/537.36" etag="ek0aGmnqSKdw4Qb6tj3L" version="22.0.3" type="device">
  <diagram name="Page-1" id="tABNfJBPp44t-wshgyku">
    <mxGraphModel dx="1430" dy="832" grid="1" gridSize="10" guides="1" tooltips="1" connect="1" arrows="1" fold="1" page="1" pageScale="1" pageWidth="850" pageHeight="1100" math="1" shadow="0">
      <root>
        <mxCell id="0" />
        <mxCell id="1" parent="0" />
        <mxCell id="ymyIegONyItxr708rEil-1" value="" style="verticalLabelPosition=bottom;shadow=0;dashed=0;align=center;html=1;verticalAlign=top;shape=mxgraph.electrical.logic_gates.logic_gate;operation=and;negating=1;negSize=0.15;" parent="1" vertex="1">
          <mxGeometry x="260" y="530" width="100" height="60" as="geometry" />
        </mxCell>
        <mxCell id="WE9-xuQVuzRk-wWDjqxM-1" style="edgeStyle=orthogonalEdgeStyle;rounded=0;orthogonalLoop=1;jettySize=auto;html=1;exitX=1;exitY=0.5;exitDx=0;exitDy=0;exitPerimeter=0;endArrow=oval;endFill=0;" edge="1" parent="1" source="ymyIegONyItxr708rEil-2">
          <mxGeometry relative="1" as="geometry">
            <mxPoint x="610" y="695" as="targetPoint" />
          </mxGeometry>
        </mxCell>
        <mxCell id="ymyIegONyItxr708rEil-2" value="" style="verticalLabelPosition=bottom;shadow=0;dashed=0;align=center;html=1;verticalAlign=top;shape=mxgraph.electrical.logic_gates.logic_gate;operation=and;negating=1;negSize=0.15;" parent="1" vertex="1">
          <mxGeometry x="460" y="665" width="100" height="60" as="geometry" />
        </mxCell>
        <mxCell id="ymyIegONyItxr708rEil-22" style="edgeStyle=orthogonalEdgeStyle;shape=connector;rounded=0;orthogonalLoop=1;jettySize=auto;html=1;exitX=0;exitY=0.75;exitDx=0;exitDy=0;exitPerimeter=0;labelBackgroundColor=default;strokeColor=default;align=center;verticalAlign=middle;fontFamily=Helvetica;fontSize=11;fontColor=default;endArrow=oval;endFill=0;" parent="1" source="ymyIegONyItxr708rEil-3" edge="1">
          <mxGeometry relative="1" as="geometry">
            <mxPoint x="120" y="740" as="targetPoint" />
            <Array as="points">
              <mxPoint x="140" y="695" />
              <mxPoint x="140" y="740" />
            </Array>
          </mxGeometry>
        </mxCell>
        <mxCell id="ymyIegONyItxr708rEil-3" value="" style="verticalLabelPosition=bottom;shadow=0;dashed=0;align=center;html=1;verticalAlign=top;shape=mxgraph.electrical.logic_gates.logic_gate;operation=and;negating=1;negSize=0.15;numInputs=2;" parent="1" vertex="1">
          <mxGeometry x="260" y="650" width="100" height="60" as="geometry" />
        </mxCell>
        <mxCell id="ymyIegONyItxr708rEil-23" style="edgeStyle=orthogonalEdgeStyle;shape=connector;rounded=0;orthogonalLoop=1;jettySize=auto;html=1;exitX=0;exitY=0.5;exitDx=0;exitDy=0;exitPerimeter=0;labelBackgroundColor=default;strokeColor=default;align=center;verticalAlign=middle;fontFamily=Helvetica;fontSize=11;fontColor=default;endArrow=oval;endFill=0;jumpStyle=arc;" parent="1" source="ymyIegONyItxr708rEil-4" edge="1">
          <mxGeometry relative="1" as="geometry">
            <mxPoint x="120" y="740" as="targetPoint" />
            <Array as="points">
              <mxPoint x="140" y="800" />
              <mxPoint x="140" y="740" />
            </Array>
          </mxGeometry>
        </mxCell>
        <mxCell id="ymyIegONyItxr708rEil-4" value="" style="verticalLabelPosition=bottom;shadow=0;dashed=0;align=center;html=1;verticalAlign=top;shape=mxgraph.electrical.logic_gates.logic_gate;operation=and;negating=1;negSize=0.15;numInputs=3;" parent="1" vertex="1">
          <mxGeometry x="260" y="770" width="100" height="60" as="geometry" />
        </mxCell>
        <mxCell id="WE9-xuQVuzRk-wWDjqxM-2" style="edgeStyle=orthogonalEdgeStyle;rounded=0;orthogonalLoop=1;jettySize=auto;html=1;exitX=1;exitY=0.5;exitDx=0;exitDy=0;exitPerimeter=0;endArrow=oval;endFill=0;" edge="1" parent="1" source="ymyIegONyItxr708rEil-5">
          <mxGeometry relative="1" as="geometry">
            <mxPoint x="610" y="785.2413793103449" as="targetPoint" />
          </mxGeometry>
        </mxCell>
        <mxCell id="ymyIegONyItxr708rEil-5" value="" style="verticalLabelPosition=bottom;shadow=0;dashed=0;align=center;html=1;verticalAlign=top;shape=mxgraph.electrical.logic_gates.logic_gate;operation=and;negating=1;negSize=0.15;numInputs=2;" parent="1" vertex="1">
          <mxGeometry x="460" y="755" width="100" height="60" as="geometry" />
        </mxCell>
        <mxCell id="ymyIegONyItxr708rEil-46" style="edgeStyle=orthogonalEdgeStyle;shape=connector;rounded=0;orthogonalLoop=1;jettySize=auto;html=1;exitX=0;exitY=0.75;exitDx=0;exitDy=0;exitPerimeter=0;labelBackgroundColor=default;strokeColor=default;align=center;verticalAlign=middle;fontFamily=Helvetica;fontSize=11;fontColor=default;endArrow=oval;endFill=0;" parent="1" source="ymyIegONyItxr708rEil-6" edge="1">
          <mxGeometry relative="1" as="geometry">
            <mxPoint x="120" y="935" as="targetPoint" />
          </mxGeometry>
        </mxCell>
        <mxCell id="ymyIegONyItxr708rEil-6" value="" style="verticalLabelPosition=bottom;shadow=0;dashed=0;align=center;html=1;verticalAlign=top;shape=mxgraph.electrical.logic_gates.logic_gate;operation=and;negating=1;negSize=0.15;numInputs=2;" parent="1" vertex="1">
          <mxGeometry x="260" y="890" width="100" height="60" as="geometry" />
        </mxCell>
        <mxCell id="ymyIegONyItxr708rEil-7" style="edgeStyle=orthogonalEdgeStyle;rounded=0;orthogonalLoop=1;jettySize=auto;html=1;exitX=1;exitY=0.5;exitDx=0;exitDy=0;exitPerimeter=0;entryX=0;entryY=0.25;entryDx=0;entryDy=0;entryPerimeter=0;endArrow=none;endFill=0;" parent="1" source="ymyIegONyItxr708rEil-3" target="ymyIegONyItxr708rEil-2" edge="1">
          <mxGeometry relative="1" as="geometry" />
        </mxCell>
        <mxCell id="ymyIegONyItxr708rEil-11" style="edgeStyle=orthogonalEdgeStyle;shape=connector;curved=1;rounded=0;orthogonalLoop=1;jettySize=auto;html=1;exitX=1;exitY=0.5;exitDx=0;exitDy=0;exitPerimeter=0;entryX=0;entryY=0.75;entryDx=0;entryDy=0;entryPerimeter=0;labelBackgroundColor=default;strokeColor=default;align=center;verticalAlign=middle;fontFamily=Helvetica;fontSize=11;fontColor=default;endArrow=none;endFill=0;" parent="1" source="ymyIegONyItxr708rEil-5" target="ymyIegONyItxr708rEil-2" edge="1">
          <mxGeometry relative="1" as="geometry">
            <Array as="points">
              <mxPoint x="580" y="785" />
              <mxPoint x="580" y="740" />
              <mxPoint x="440" y="740" />
              <mxPoint x="440" y="710" />
            </Array>
          </mxGeometry>
        </mxCell>
        <mxCell id="ymyIegONyItxr708rEil-12" style="edgeStyle=orthogonalEdgeStyle;shape=connector;curved=1;rounded=0;orthogonalLoop=1;jettySize=auto;html=1;exitX=1;exitY=0.5;exitDx=0;exitDy=0;exitPerimeter=0;entryX=0;entryY=0.75;entryDx=0;entryDy=0;entryPerimeter=0;labelBackgroundColor=default;strokeColor=default;align=center;verticalAlign=middle;fontFamily=Helvetica;fontSize=11;fontColor=default;endArrow=none;endFill=0;" parent="1" source="ymyIegONyItxr708rEil-3" target="ymyIegONyItxr708rEil-1" edge="1">
          <mxGeometry relative="1" as="geometry" />
        </mxCell>
        <mxCell id="ymyIegONyItxr708rEil-14" style="edgeStyle=orthogonalEdgeStyle;shape=connector;curved=1;rounded=0;orthogonalLoop=1;jettySize=auto;html=1;exitX=0;exitY=0.8333333333333333;exitDx=0;exitDy=0;exitPerimeter=0;entryX=1;entryY=0.5;entryDx=0;entryDy=0;entryPerimeter=0;labelBackgroundColor=default;strokeColor=default;align=center;verticalAlign=middle;fontFamily=Helvetica;fontSize=11;fontColor=default;endArrow=none;endFill=0;" parent="1" source="ymyIegONyItxr708rEil-4" target="ymyIegONyItxr708rEil-6" edge="1">
          <mxGeometry relative="1" as="geometry" />
        </mxCell>
        <mxCell id="ymyIegONyItxr708rEil-16" style="edgeStyle=orthogonalEdgeStyle;shape=connector;curved=1;rounded=0;orthogonalLoop=1;jettySize=auto;html=1;exitX=1;exitY=0.5;exitDx=0;exitDy=0;exitPerimeter=0;entryX=0;entryY=0.16666666666666666;entryDx=0;entryDy=0;entryPerimeter=0;labelBackgroundColor=default;strokeColor=default;align=center;verticalAlign=middle;fontFamily=Helvetica;fontSize=11;fontColor=default;endArrow=none;endFill=0;" parent="1" source="ymyIegONyItxr708rEil-3" target="ymyIegONyItxr708rEil-4" edge="1">
          <mxGeometry relative="1" as="geometry" />
        </mxCell>
        <mxCell id="ymyIegONyItxr708rEil-17" style="shape=connector;rounded=0;orthogonalLoop=1;jettySize=auto;html=1;exitX=1;exitY=0.5;exitDx=0;exitDy=0;exitPerimeter=0;entryX=0;entryY=0.25;entryDx=0;entryDy=0;entryPerimeter=0;labelBackgroundColor=default;strokeColor=default;align=center;verticalAlign=middle;fontFamily=Helvetica;fontSize=11;fontColor=default;endArrow=none;endFill=0;edgeStyle=orthogonalEdgeStyle;jumpStyle=arc;" parent="1" source="ymyIegONyItxr708rEil-6" target="ymyIegONyItxr708rEil-1" edge="1">
          <mxGeometry relative="1" as="geometry">
            <Array as="points">
              <mxPoint x="360" y="980" />
              <mxPoint x="200" y="980" />
              <mxPoint x="200" y="545" />
            </Array>
          </mxGeometry>
        </mxCell>
        <mxCell id="ymyIegONyItxr708rEil-36" value="$$Clk$$" style="text;html=1;align=center;verticalAlign=middle;resizable=0;points=[];autosize=1;strokeColor=none;fillColor=none;fontSize=11;fontFamily=Helvetica;fontColor=default;" parent="1" vertex="1">
          <mxGeometry x="70" y="710" width="60" height="30" as="geometry" />
        </mxCell>
        <mxCell id="ymyIegONyItxr708rEil-37" value="&amp;nbsp;$$D$$" style="text;html=1;align=center;verticalAlign=middle;resizable=0;points=[];autosize=1;strokeColor=none;fillColor=none;fontSize=11;fontFamily=Helvetica;fontColor=default;" parent="1" vertex="1">
          <mxGeometry x="80" y="900" width="60" height="30" as="geometry" />
        </mxCell>
        <mxCell id="ymyIegONyItxr708rEil-40" style="edgeStyle=orthogonalEdgeStyle;shape=connector;rounded=0;orthogonalLoop=1;jettySize=auto;html=1;exitX=1;exitY=0.5;exitDx=0;exitDy=0;exitPerimeter=0;entryX=0;entryY=0.25;entryDx=0;entryDy=0;entryPerimeter=0;labelBackgroundColor=default;strokeColor=default;align=center;verticalAlign=middle;fontFamily=Helvetica;fontSize=11;fontColor=default;endArrow=none;endFill=0;curved=1;" parent="1" source="ymyIegONyItxr708rEil-1" target="ymyIegONyItxr708rEil-3" edge="1">
          <mxGeometry relative="1" as="geometry" />
        </mxCell>
        <mxCell id="ymyIegONyItxr708rEil-42" style="edgeStyle=orthogonalEdgeStyle;shape=connector;rounded=0;orthogonalLoop=1;jettySize=auto;html=1;exitX=1;exitY=0.5;exitDx=0;exitDy=0;exitPerimeter=0;entryX=0;entryY=0.25;entryDx=0;entryDy=0;entryPerimeter=0;labelBackgroundColor=default;strokeColor=default;align=center;verticalAlign=middle;fontFamily=Helvetica;fontSize=11;fontColor=default;endArrow=none;endFill=0;curved=1;" parent="1" source="ymyIegONyItxr708rEil-2" target="ymyIegONyItxr708rEil-5" edge="1">
          <mxGeometry relative="1" as="geometry">
            <Array as="points">
              <mxPoint x="580" y="695" />
              <mxPoint x="580" y="740" />
              <mxPoint x="440" y="740" />
              <mxPoint x="440" y="770" />
            </Array>
          </mxGeometry>
        </mxCell>
        <mxCell id="ymyIegONyItxr708rEil-44" style="edgeStyle=orthogonalEdgeStyle;shape=connector;rounded=0;orthogonalLoop=1;jettySize=auto;html=1;exitX=1;exitY=0.5;exitDx=0;exitDy=0;exitPerimeter=0;entryX=0;entryY=0.75;entryDx=0;entryDy=0;entryPerimeter=0;labelBackgroundColor=default;strokeColor=default;align=center;verticalAlign=middle;fontFamily=Helvetica;fontSize=11;fontColor=default;endArrow=none;endFill=0;" parent="1" source="ymyIegONyItxr708rEil-4" target="ymyIegONyItxr708rEil-5" edge="1">
          <mxGeometry relative="1" as="geometry" />
        </mxCell>
        <mxCell id="ymyIegONyItxr708rEil-45" style="edgeStyle=orthogonalEdgeStyle;shape=connector;rounded=0;orthogonalLoop=1;jettySize=auto;html=1;exitX=1;exitY=0.5;exitDx=0;exitDy=0;exitPerimeter=0;entryX=0;entryY=0.25;entryDx=0;entryDy=0;entryPerimeter=0;labelBackgroundColor=default;strokeColor=default;align=center;verticalAlign=middle;fontFamily=Helvetica;fontSize=11;fontColor=default;endArrow=none;endFill=0;curved=1;" parent="1" source="ymyIegONyItxr708rEil-4" target="ymyIegONyItxr708rEil-6" edge="1">
          <mxGeometry relative="1" as="geometry" />
        </mxCell>
        <mxCell id="WE9-xuQVuzRk-wWDjqxM-3" value="$$Q$$" style="text;html=1;align=center;verticalAlign=middle;resizable=0;points=[];autosize=1;strokeColor=none;fillColor=none;" vertex="1" parent="1">
          <mxGeometry x="600" y="665" width="60" height="30" as="geometry" />
        </mxCell>
        <mxCell id="WE9-xuQVuzRk-wWDjqxM-4" value="$$\bar{Q}$$" style="text;html=1;align=center;verticalAlign=middle;resizable=0;points=[];autosize=1;strokeColor=none;fillColor=none;" vertex="1" parent="1">
          <mxGeometry x="585" y="755" width="90" height="30" as="geometry" />
        </mxCell>
      </root>
    </mxGraphModel>
  </diagram>
</mxfile>
